<svg xmlns="http://www.w3.org/2000/svg" width="500" viewBox="0 0 375 375" height="500" version="1.0"><defs><clipPath id="a"><path d="M219 120h150.867v123H219zm0 0"/></clipPath></defs><g clip-path="url(#a)"><path fill="#0f1120" d="M249.773 163.59c-6.57 0-11.472 3.23-11.472 11.008 0 5.804 3.226 9.925 11.113 9.925 6.688 0 11.227-3.949 11.227-10.168 0-7.062-4.059-10.765-10.868-10.765zm-13.14 54.902c-1.559 1.91-3.11 3.946-3.11 6.285 0 4.778 6.086 6.223 14.457 6.223 6.93 0 16.368-.484 16.368-6.938 0-3.832-4.54-4.07-10.282-4.43l-17.394-1.19zM272 163.945c2.145 2.758 4.422 6.578 4.422 12.086 0 13.27-10.438 21.047-25.45 21.047-3.867 0-7.25-.484-9.445-1.078l-3.941 6.29 11.71.714c20.68 1.316 32.856 1.918 32.856 17.816 0 13.758-12.058 21.52-32.855 21.52-21.625 0-29.867-5.5-29.867-14.992 0-5.38 2.398-8.254 6.57-12.203-3.941-1.665-5.254-4.657-5.254-7.887 0-2.63 1.313-5.028 3.465-7.254l7.406-7.176c-5.855-2.863-10.281-9.094-10.281-17.894 0-13.754 9.082-23.2 27.367-23.2 5.14 0 8.246.477 10.996 1.2H283v10.164l-10.996.836m32.012-21.723c-6.766 0-10.754-3.945-10.754-10.774 0-6.824 3.941-10.523 10.754-10.523 6.93 0 10.87 3.715 10.87 10.523 0 6.813-3.94 10.774-10.866 10.774zm-15.461 71.879v-9.442l6.097-.835c1.672-.239 1.914-.602 1.914-2.399v-35.152c0-1.317-.359-2.153-1.558-2.516l-6.453-2.273 1.312-9.68h24.738v49.64c0 1.915.118 2.153 1.915 2.399l6.085.836v9.434h-34.062m81.363-4.645c-5.14 2.516-12.668 4.836-19.48 4.836-14.223 0-19.598-5.734-19.598-19.254V163.7c0-.715 0-1.199-.965-1.199h-8.312v-10.64c10.515-1.16 14.699-6.462 16.015-19.5h11.352v16.984c0 .832 0 1.199.96 1.199h16.852V162.5h-17.859v28.531c0 7.063 1.68 9.809 8.117 9.809 3.348 0 6.766-.836 9.68-1.91l3.227 10.523"/></g><path fill="#f03c2e" d="M167.21 175.121L95.579 103.43c-4.121-4.13-10.812-4.13-14.941 0L65.77 118.316l18.863 18.88c4.387-1.481 9.41-.485 12.898 3.007a12.4 12.4 0 012.102 2.8c.57 1.032.988 2.122 1.25 3.27.265 1.149.363 2.313.3 3.493a12.452 12.452 0 01-.675 3.437l18.183 18.2c4.348-1.516 9.473-.532 12.989 2.98a12.36 12.36 0 012 2.605 12.3 12.3 0 011.257 3.035c.29 1.067.43 2.153.43 3.258a12.556 12.556 0 01-6.293 10.899c-.957.55-1.969.968-3.035 1.254a12.53 12.53 0 01-6.504 0 12.58 12.58 0 01-5.637-3.258c-3.691-3.7-4.597-9.133-2.73-13.688l-16.914-16.925v44.667c1.16.598 2.328 1.383 3.324 2.38 4.91 4.913 4.91 12.874 0 17.796a12.49 12.49 0 01-4.074 2.73c-.766.317-1.55.555-2.36.72-.808.16-1.628.238-2.453.238-.824 0-1.644-.078-2.453-.239a12.843 12.843 0 01-2.36-.718 12.49 12.49 0 01-4.073-2.73c-4.91-4.927-4.91-12.884 0-17.798a12.501 12.501 0 014.113-2.746V160.79c-1.45-.617-2.898-1.523-4.113-2.707a12.465 12.465 0 01-2.203-2.977 12.362 12.362 0 01-1.243-3.488 12.508 12.508 0 01.739-7.289l-18.602-18.621-49.144 49.078a10.344 10.344 0 00-1.313 1.602 10.787 10.787 0 00-.973 1.828 10.452 10.452 0 00-.597 1.984c-.137.68-.203 1.367-.203 2.063 0 .695.066 1.383.203 2.062.133.68.332 1.344.597 1.985a10.562 10.562 0 002.285 3.434l71.633 71.69c4.121 4.13 10.813 4.13 14.942 0l71.285-71.355a10.56 10.56 0 001.309-1.605 10.666 10.666 0 001.574-3.813 10.73 10.73 0 000-4.125c-.137-.68-.336-1.34-.602-1.98a10.677 10.677 0 00-.972-1.832 10.7 10.7 0 00-1.31-1.602"/></svg>