<svg xmlns="http://www.w3.org/2000/svg" width="500" viewBox="0 0 375 375" height="500" version="1.0"><defs><clipPath id="a"><path d="M15.371 98h344.25v179.242H15.371zm0 0"/></clipPath><clipPath id="b"><path d="M15.371 187.645c0 49.39 77.063 89.43 172.117 89.43 95.059 0 172.121-40.04 172.121-89.43 0-49.387-77.062-89.43-172.12-89.43-95.055 0-172.118 40.043-172.118 89.43"/></clipPath><clipPath id="c"><path d="M15.371 187.645c0 49.39 77.063 89.43 172.117 89.43 95.059 0 172.121-40.04 172.121-89.43 0-49.387-77.062-89.43-172.12-89.43-95.055 0-172.118 40.043-172.118 89.43"/></clipPath><radialGradient gradientTransform="matrix(1.00619 0 0 .99381 118.712 129.656)" gradientUnits="userSpaceOnUse" r="224.63" cx="0" id="d" cy="0" fx="0" fy="0"><stop stop-color="#AEB2D5" offset="0"/><stop stop-color="#AEB2D5" offset=".25"/><stop stop-color="#AEB2D5" offset=".297"/><stop stop-color="#ADB1D4" offset=".301"/><stop stop-color="#ACB0D4" offset=".305"/><stop stop-color="#ACB0D3" offset=".309"/><stop stop-color="#ABAFD2" offset=".313"/><stop stop-color="#AAAED2" offset=".316"/><stop stop-color="#A9ADD1" offset=".32"/><stop stop-color="#A8ACD1" offset=".324"/><stop stop-color="#A7ABD0" offset=".328"/><stop stop-color="#A6AACF" offset=".332"/><stop stop-color="#A5A9CF" offset=".336"/><stop stop-color="#A4A9CE" offset=".34"/><stop stop-color="#A4A8CD" offset=".344"/><stop stop-color="#A3A7CD" offset=".348"/><stop stop-color="#A2A6CC" offset=".352"/><stop stop-color="#A1A5CB" offset=".355"/><stop stop-color="#A0A4CB" offset=".359"/><stop stop-color="#9FA3CA" offset=".363"/><stop stop-color="#9EA2C9" offset=".367"/><stop stop-color="#9DA1C9" offset=".371"/><stop stop-color="#9CA1C8" offset=".375"/><stop stop-color="#9CA0C7" offset=".379"/><stop stop-color="#9B9FC7" offset=".383"/><stop stop-color="#9A9EC6" offset=".387"/><stop stop-color="#999DC5" offset=".391"/><stop stop-color="#989CC5" offset=".395"/><stop stop-color="#979BC4" offset=".398"/><stop stop-color="#969AC3" offset=".402"/><stop stop-color="#9599C3" offset=".406"/><stop stop-color="#9499C2" offset=".41"/><stop stop-color="#9498C1" offset=".414"/><stop stop-color="#9397C1" offset=".418"/><stop stop-color="#9296C0" offset=".422"/><stop stop-color="#9195BF" offset=".426"/><stop stop-color="#9094BF" offset=".43"/><stop stop-color="#8F93BE" offset=".434"/><stop stop-color="#8E92BD" offset=".438"/><stop stop-color="#8D91BD" offset=".441"/><stop stop-color="#8D91BC" offset=".445"/><stop stop-color="#8C90BB" offset=".449"/><stop stop-color="#8B8FBB" offset=".453"/><stop stop-color="#8A8EBA" offset=".457"/><stop stop-color="#898DB9" offset=".461"/><stop stop-color="#888CB9" offset=".465"/><stop stop-color="#878BB8" offset=".469"/><stop stop-color="#868AB7" offset=".473"/><stop stop-color="#858AB7" offset=".477"/><stop stop-color="#8589B6" offset=".48"/><stop stop-color="#8488B5" offset=".484"/><stop stop-color="#8387B5" offset=".488"/><stop stop-color="#8286B4" offset=".492"/><stop stop-color="#8185B3" offset=".496"/><stop stop-color="#8084B3" offset=".5"/><stop stop-color="#7F83B2" offset=".504"/><stop stop-color="#7E82B1" offset=".508"/><stop stop-color="#7D82B1" offset=".512"/><stop stop-color="#7D81B0" offset=".516"/><stop stop-color="#7C80B0" offset=".52"/><stop stop-color="#7B7FAF" offset=".523"/><stop stop-color="#7A7EAE" offset=".527"/><stop stop-color="#797DAE" offset=".531"/><stop stop-color="#787CAD" offset=".535"/><stop stop-color="#777BAC" offset=".539"/><stop stop-color="#767AAC" offset=".543"/><stop stop-color="#767AAB" offset=".547"/><stop stop-color="#7579AA" offset=".551"/><stop stop-color="#7478AA" offset=".555"/><stop stop-color="#7377A9" offset=".559"/><stop stop-color="#7276A8" offset=".563"/><stop stop-color="#7175A8" offset=".566"/><stop stop-color="#7074A7" offset=".57"/><stop stop-color="#6F73A6" offset=".574"/><stop stop-color="#6E73A6" offset=".578"/><stop stop-color="#6E72A5" offset=".582"/><stop stop-color="#6D71A4" offset=".586"/><stop stop-color="#6C70A4" offset=".59"/><stop stop-color="#6B6FA3" offset=".594"/><stop stop-color="#6A6EA2" offset=".598"/><stop stop-color="#696DA2" offset=".602"/><stop stop-color="#686CA1" offset=".605"/><stop stop-color="#676BA0" offset=".609"/><stop stop-color="#666BA0" offset=".613"/><stop stop-color="#666A9F" offset=".617"/><stop stop-color="#65699E" offset=".621"/><stop stop-color="#64689E" offset=".625"/><stop stop-color="#63679D" offset=".629"/><stop stop-color="#62669C" offset=".633"/><stop stop-color="#61659C" offset=".637"/><stop stop-color="#60649B" offset=".641"/><stop stop-color="#5F639A" offset=".645"/><stop stop-color="#5E639A" offset=".648"/><stop stop-color="#5E6299" offset=".652"/><stop stop-color="#5D6198" offset=".656"/><stop stop-color="#5C6098" offset=".66"/><stop stop-color="#5B5F97" offset=".664"/><stop stop-color="#5A5E96" offset=".668"/><stop stop-color="#595D96" offset=".672"/><stop stop-color="#585C95" offset=".676"/><stop stop-color="#575B94" offset=".68"/><stop stop-color="#575B94" offset=".684"/><stop stop-color="#565A93" offset=".688"/><stop stop-color="#555992" offset=".691"/><stop stop-color="#545892" offset=".695"/><stop stop-color="#535791" offset=".699"/><stop stop-color="#525691" offset=".703"/><stop stop-color="#515590" offset=".707"/><stop stop-color="#50548F" offset=".711"/><stop stop-color="#4F548F" offset=".715"/><stop stop-color="#4F538E" offset=".719"/><stop stop-color="#4E528D" offset=".723"/><stop stop-color="#4D518D" offset=".727"/><stop stop-color="#4C508C" offset=".73"/><stop stop-color="#4B4F8B" offset=".734"/><stop stop-color="#4A4E8B" offset=".738"/><stop stop-color="#494D8A" offset=".742"/><stop stop-color="#484C89" offset=".746"/><stop stop-color="#484C89" offset="1"/></radialGradient></defs><g clip-path="url(#a)"><g clip-path="url(#b)"><g clip-path="url(#c)"><path fill="url(#d)" d="M15.371 98.215v178.86H359.61V98.214zm0 0"/></g></g></g><path fill="#777bb3" d="M187.488 270.434c91.348 0 165.399-37.067 165.399-82.79 0-45.722-74.051-82.789-165.399-82.789-91.343 0-165.394 37.067-165.394 82.79 0 45.722 74.05 82.789 165.394 82.789"/><path d="M108.883 197.906c7.512 0 13.117-1.367 16.664-4.062 3.512-2.668 5.933-7.293 7.207-13.746 1.184-6.028.73-10.239-1.344-12.512-2.12-2.32-6.707-3.496-13.629-3.496h-12.004l-6.652 33.816zm-39.258 41.66a1.876 1.876 0 01-1.441-.671 1.73 1.73 0 01-.391-1.524l17.633-89.617a1.824 1.824 0 01.648-1.074 1.849 1.849 0 011.188-.418h38.008c11.945 0 20.835 3.195 26.425 9.52 5.618 6.35 7.352 15.234 5.157 26.39-.895 4.547-2.434 8.77-4.57 12.55-2.141 3.786-4.97 7.286-8.41 10.41-4.122 3.81-8.782 6.571-13.845 8.192-4.98 1.606-11.379 2.418-19.015 2.418h-15.39l-4.395 22.332c-.043.211-.122.41-.23.594-.11.184-.25.344-.419.48a1.849 1.849 0 01-.555.313c-.203.07-.414.11-.632.11H69.62zm0 0"/><path fill="#fff" d="M107.32 165.934h10.461c8.356 0 11.258 1.812 12.246 2.89 1.637 1.793 1.946 5.57.891 10.926-1.18 5.992-3.371 10.242-6.508 12.633-3.215 2.441-8.437 3.68-15.527 3.68h-7.488l5.93-30.13zm17.946-21.52H87.262a3.74 3.74 0 00-3.211 1.8 3.585 3.585 0 00-.457 1.184L65.96 237.023a3.498 3.498 0 00-.066.809 3.576 3.576 0 00.402 1.563c.121.242.273.468.45.68.171.21.37.398.585.566.219.164.453.308.703.422.246.117.508.203.774.265.27.059.543.09.816.09H89.39a3.73 3.73 0 001.261-.219 3.7 3.7 0 002.407-2.77l4.101-20.84h13.852c7.832 0 14.425-.843 19.597-2.507 5.317-1.707 10.211-4.598 14.54-8.598 3.581-3.254 6.535-6.906 8.765-10.855 2.227-3.953 3.84-8.36 4.774-13.102 2.312-11.746.433-21.152-5.586-27.953-5.957-6.738-15.32-10.156-27.829-10.156m-28.41 55.34h12.024c7.968 0 13.906-1.48 17.804-4.45 3.899-2.964 6.532-7.913 7.899-14.851 1.308-6.66.71-11.363-1.785-14.102-2.5-2.738-7.508-4.105-15.016-4.105h-13.543l-7.383 37.508m28.41-51.653c11.434 0 19.774 2.965 25.016 8.895 5.246 5.926 6.824 14.2 4.73 24.824-.859 4.375-2.316 8.38-4.367 12.004-2.05 3.625-4.73 6.942-8.043 9.95-3.949 3.648-8.332 6.245-13.156 7.796-4.824 1.555-10.969 2.324-18.441 2.324h-16.93l-4.687 23.829H69.629l17.637-89.614h38.007"/><path d="M202.168 215.738a1.868 1.868 0 01-1.438-.672 1.828 1.828 0 01-.394-1.523l7.8-39.652c.743-3.774.56-6.48-.515-7.625-.656-.696-2.629-1.871-8.469-1.871H185.02l-9.81 49.851a1.753 1.753 0 01-.23.59 1.832 1.832 0 01-.973.793c-.202.074-.413.11-.628.11h-19.613a1.88 1.88 0 01-1.442-.673 1.85 1.85 0 01-.367-.718 1.75 1.75 0 01-.023-.805l17.636-89.621a1.811 1.811 0 01.645-1.07 1.898 1.898 0 011.187-.422h19.61a1.858 1.858 0 011.441.672c.18.21.3.453.371.718.067.27.074.535.024.809l-4.258 21.629h15.203c11.582 0 19.437 2.015 24.012 6.164 4.668 4.234 6.117 11 4.324 20.121l-8.203 41.703a1.875 1.875 0 01-.645 1.074 2.012 2.012 0 01-.558.313 1.92 1.92 0 01-.633.105zm0 0"/><path fill="#fff" d="M191.016 120.586h-19.614a3.76 3.76 0 00-2.375.844c-.336.27-.613.59-.832.96a3.597 3.597 0 00-.457 1.18l-17.636 89.621a3.71 3.71 0 00-.067.809 3.7 3.7 0 00.403 1.563 3.657 3.657 0 001.04 1.242c.213.168.448.308.698.425.25.118.508.204.777.262.27.063.54.09.817.09h19.609a3.74 3.74 0 003.21-1.8c.22-.368.372-.762.458-1.184l9.512-48.356h12.593c5.828 0 7.055 1.227 7.102 1.281.355.375.82 2.114.05 6.012l-7.8 39.656a3.7 3.7 0 00.336 2.371 3.657 3.657 0 001.04 1.242 3.643 3.643 0 001.477.688c.268.063.541.09.815.09h19.922a3.74 3.74 0 003.21-1.8c.223-.368.372-.762.458-1.184l8.203-41.703c1.926-9.79.277-17.133-4.89-21.829-4.938-4.476-13.204-6.652-25.278-6.652h-12.938l3.825-19.434a3.701 3.701 0 00-.336-2.375 3.68 3.68 0 00-1.04-1.242 3.758 3.758 0 00-.699-.426 3.642 3.642 0 00-.777-.261 3.556 3.556 0 00-.816-.09m0 3.687l-4.688 23.829h17.469c10.992 0 18.574 1.894 22.75 5.68 4.172 3.784 5.422 9.925 3.754 18.41l-8.207 41.703h-19.918l7.797-39.653c.89-4.512.562-7.59-.977-9.23-1.543-1.64-4.824-2.461-9.84-2.461H183.48l-10.101 51.344h-19.61l17.633-89.622h19.614"/><path d="M263.16 197.906c7.512 0 13.117-1.367 16.664-4.062 3.512-2.668 5.934-7.293 7.207-13.746 1.184-6.028.735-10.239-1.344-12.512-2.12-2.32-6.703-3.496-13.628-3.496h-12l-6.657 33.816zm-39.258 41.66a1.876 1.876 0 01-1.441-.671 1.75 1.75 0 01-.395-1.524l17.637-89.621a1.875 1.875 0 01.645-1.07 1.82 1.82 0 01.558-.313c.203-.074.414-.11.633-.11h38.008c11.945 0 20.836 3.2 26.426 9.524 5.617 6.352 7.351 15.23 5.156 26.39-.899 4.548-2.434 8.77-4.57 12.552-2.145 3.78-4.973 7.285-8.414 10.41-4.118 3.804-8.778 6.566-13.84 8.191-4.985 1.602-11.383 2.418-19.02 2.418h-15.402l-4.39 22.332a1.82 1.82 0 01-.231.59c-.11.188-.25.344-.418.48a1.768 1.768 0 01-.555.313c-.203.074-.414.11-.633.11h-19.765zm0 0"/><path fill="#fff" d="M261.598 165.934h10.464c8.352 0 11.258 1.812 12.243 2.89 1.636 1.793 1.945 5.57.894 10.922-1.183 5.996-3.375 10.246-6.512 12.637-3.214 2.441-8.437 3.68-15.527 3.68h-7.488zm17.949-21.52h-38.012a3.757 3.757 0 00-2.375.84 3.691 3.691 0 00-1.289 2.144l-17.637 89.625a3.498 3.498 0 00-.066.809c.008.273.043.54.113.805a3.724 3.724 0 001.328 2.004 3.85 3.85 0 001.473.688c.27.058.543.089.816.089h19.766a3.783 3.783 0 002.379-.844 3.691 3.691 0 001.289-2.144l4.102-20.84h13.851c7.832 0 14.426-.844 19.598-2.508 5.316-1.707 10.21-4.598 14.539-8.598 3.582-3.254 6.531-6.906 8.765-10.855 2.235-3.953 3.84-8.36 4.774-13.102 2.312-11.746.434-21.152-5.586-27.957-5.957-6.734-15.32-10.152-27.832-10.152m-28.406 55.34h12.023c7.969 0 13.906-1.48 17.805-4.45 3.898-2.964 6.531-7.913 7.898-14.851 1.309-6.66.711-11.363-1.785-14.102-2.5-2.738-7.508-4.105-15.015-4.105H258.52l-7.383 37.508m28.41-51.653c11.433 0 19.773 2.965 25.015 8.895 5.247 5.926 6.825 14.2 4.731 24.824-.86 4.375-2.316 8.38-4.367 12.004-2.051 3.625-4.73 6.942-8.043 9.95-3.95 3.648-8.332 6.245-13.156 7.796-4.825 1.555-10.97 2.324-18.442 2.324h-16.93l-4.687 23.829h-19.766l17.637-89.618h38.008"/></svg>