<svg xmlns="http://www.w3.org/2000/svg" xmlns:xlink="http://www.w3.org/1999/xlink" width="500" zoomAndPan="magnify" viewBox="0 0 375 374.999991" height="500" preserveAspectRatio="xMidYMid meet" version="1.0"><defs><clipPath id="61b4a028f3"><path d="M 219 120 L 369.867188 120 L 369.867188 243 L 219 243 Z M 219 120 " clip-rule="nonzero"/></clipPath></defs><g clip-path="url(#61b4a028f3)"><path fill="#0f1120" d="M 249.773438 163.589844 C 243.203125 163.589844 238.300781 166.820312 238.300781 174.597656 C 238.300781 180.402344 241.527344 184.523438 249.414062 184.523438 C 256.101562 184.523438 260.640625 180.574219 260.640625 174.355469 C 260.640625 167.292969 256.582031 163.589844 249.773438 163.589844 Z M 236.632812 218.492188 C 235.074219 220.402344 233.523438 222.4375 233.523438 224.777344 C 233.523438 229.554688 239.609375 231 247.980469 231 C 254.910156 231 264.347656 230.515625 264.347656 224.0625 C 264.347656 220.230469 259.808594 219.992188 254.066406 219.632812 L 236.671875 218.441406 Z M 272 163.945312 C 274.144531 166.703125 276.421875 170.523438 276.421875 176.03125 C 276.421875 189.300781 265.984375 197.078125 250.972656 197.078125 C 247.105469 197.078125 243.722656 196.59375 241.527344 196 L 237.585938 202.289062 L 249.296875 203.003906 C 269.976562 204.320312 282.152344 204.921875 282.152344 220.820312 C 282.152344 234.578125 270.09375 242.339844 249.296875 242.339844 C 227.671875 242.339844 219.429688 236.839844 219.429688 227.347656 C 219.429688 221.96875 221.828125 219.09375 226 215.144531 C 222.058594 213.480469 220.746094 210.488281 220.746094 207.257812 C 220.746094 204.628906 222.058594 202.230469 224.210938 200.003906 L 231.617188 192.828125 C 225.761719 189.964844 221.335938 183.734375 221.335938 174.933594 C 221.335938 161.179688 230.417969 151.734375 248.703125 151.734375 C 253.84375 151.734375 256.949219 152.210938 259.699219 152.933594 L 283 152.933594 L 283 163.097656 L 272.003906 163.933594 M 304.015625 142.210938 C 297.25 142.210938 293.261719 138.265625 293.261719 131.4375 C 293.261719 124.613281 297.203125 120.914062 304.015625 120.914062 C 310.945312 120.914062 314.886719 124.628906 314.886719 131.4375 C 314.886719 138.25 310.945312 142.210938 304.019531 142.210938 Z M 288.554688 214.089844 L 288.554688 204.648438 L 294.652344 203.8125 C 296.324219 203.574219 296.566406 203.210938 296.566406 201.414062 L 296.566406 166.261719 C 296.566406 164.945312 296.207031 164.109375 295.007812 163.746094 L 288.554688 161.472656 L 289.867188 151.792969 L 314.605469 151.792969 L 314.605469 201.433594 C 314.605469 203.347656 314.722656 203.585938 316.519531 203.832031 L 322.605469 204.667969 L 322.605469 214.101562 L 288.542969 214.101562 M 369.90625 209.457031 C 364.765625 211.972656 357.238281 214.292969 350.425781 214.292969 C 336.203125 214.292969 330.828125 208.558594 330.828125 195.039062 L 330.828125 163.699219 C 330.828125 162.984375 330.828125 162.5 329.863281 162.5 L 321.550781 162.5 L 321.550781 151.859375 C 332.066406 150.699219 336.25 145.398438 337.566406 132.359375 L 348.917969 132.359375 L 348.917969 149.34375 C 348.917969 150.175781 348.917969 150.542969 349.878906 150.542969 L 366.730469 150.542969 L 366.730469 162.5 L 348.871094 162.5 L 348.871094 191.03125 C 348.871094 198.09375 350.550781 200.839844 356.988281 200.839844 C 360.335938 200.839844 363.753906 200.003906 366.667969 198.929688 L 369.894531 209.453125 " fill-opacity="1" fill-rule="nonzero"/></g><path fill="#f03c2e" d="M 167.210938 175.121094 L 95.578125 103.429688 C 91.457031 99.300781 84.765625 99.300781 80.636719 103.429688 L 65.769531 118.316406 L 84.632812 137.195312 C 89.019531 135.714844 94.042969 136.710938 97.53125 140.203125 C 98.363281 141.035156 99.0625 141.96875 99.632812 143.003906 C 100.203125 144.035156 100.621094 145.125 100.882812 146.273438 C 101.148438 147.421875 101.246094 148.585938 101.183594 149.765625 C 101.121094 150.941406 100.894531 152.089844 100.507812 153.203125 L 118.691406 171.402344 C 123.039062 169.886719 128.164062 170.871094 131.679688 174.382812 C 132.460938 175.160156 133.128906 176.03125 133.679688 176.988281 C 134.234375 177.941406 134.652344 178.953125 134.9375 180.023438 C 135.226562 181.089844 135.367188 182.175781 135.367188 183.28125 C 135.367188 184.386719 135.226562 185.472656 134.941406 186.539062 C 134.652344 187.605469 134.234375 188.617188 133.683594 189.574219 C 133.128906 190.53125 132.464844 191.398438 131.683594 192.179688 C 130.902344 192.960938 130.03125 193.628906 129.074219 194.179688 C 128.117188 194.730469 127.105469 195.148438 126.039062 195.433594 C 124.972656 195.71875 123.890625 195.863281 122.785156 195.863281 C 121.683594 195.863281 120.597656 195.71875 119.535156 195.433594 C 118.46875 195.148438 117.457031 194.726562 116.5 194.175781 C 115.546875 193.621094 114.679688 192.957031 113.898438 192.175781 C 110.207031 188.476562 109.300781 183.042969 111.167969 178.488281 L 94.253906 161.5625 L 94.253906 206.230469 C 95.414062 206.828125 96.582031 207.613281 97.578125 208.609375 C 102.488281 213.523438 102.488281 221.484375 97.578125 226.40625 C 96.996094 226.992188 96.363281 227.515625 95.675781 227.972656 C 94.988281 228.433594 94.265625 228.820312 93.503906 229.136719 C 92.738281 229.453125 91.953125 229.691406 91.144531 229.855469 C 90.335938 230.015625 89.515625 230.09375 88.691406 230.09375 C 87.867188 230.09375 87.046875 230.015625 86.238281 229.855469 C 85.429688 229.691406 84.644531 229.453125 83.878906 229.136719 C 83.117188 228.820312 82.394531 228.433594 81.707031 227.972656 C 81.019531 227.515625 80.386719 226.992188 79.804688 226.40625 C 74.894531 221.480469 74.894531 213.523438 79.804688 208.609375 C 80.992188 207.421875 82.363281 206.503906 83.917969 205.863281 L 83.917969 160.789062 C 82.46875 160.171875 81.019531 159.265625 79.804688 158.082031 C 78.921875 157.199219 78.1875 156.207031 77.601562 155.105469 C 77.011719 154.003906 76.597656 152.839844 76.359375 151.617188 C 76.117188 150.390625 76.058594 149.160156 76.183594 147.917969 C 76.3125 146.675781 76.617188 145.476562 77.097656 144.328125 L 58.496094 125.707031 L 9.351562 174.785156 C 8.859375 175.273438 8.425781 175.808594 8.039062 176.386719 C 7.65625 176.964844 7.332031 177.574219 7.066406 178.214844 C 6.800781 178.859375 6.601562 179.519531 6.46875 180.199219 C 6.332031 180.878906 6.265625 181.566406 6.265625 182.261719 C 6.265625 182.957031 6.332031 183.644531 6.46875 184.324219 C 6.601562 185.003906 6.800781 185.667969 7.066406 186.308594 C 7.332031 186.949219 7.65625 187.558594 8.039062 188.136719 C 8.425781 188.714844 8.859375 189.25 9.351562 189.742188 L 80.984375 261.433594 C 85.105469 265.5625 91.796875 265.5625 95.925781 261.433594 L 167.210938 190.078125 C 167.699219 189.585938 168.136719 189.050781 168.519531 188.472656 C 168.902344 187.894531 169.226562 187.285156 169.492188 186.644531 C 169.757812 186.003906 169.957031 185.339844 170.09375 184.660156 C 170.226562 183.980469 170.292969 183.292969 170.292969 182.597656 C 170.292969 181.90625 170.226562 181.21875 170.09375 180.535156 C 169.957031 179.855469 169.757812 179.195312 169.492188 178.554688 C 169.226562 177.910156 168.902344 177.300781 168.519531 176.722656 C 168.136719 176.148438 167.699219 175.613281 167.210938 175.121094 " fill-opacity="1" fill-rule="nonzero"/></svg>