<?xml version="1.0" standalone="no"?>
<!DOCTYPE svg PUBLIC "-//W3C//DTD SVG 20010904//EN"
 "http://www.w3.org/TR/2001/REC-SVG-20010904/DTD/svg10.dtd">
<svg version="1.0" xmlns="http://www.w3.org/2000/svg"
 width="500.000000pt" height="500.000000pt" viewBox="0 0 500.000000 500.000000"
 preserveAspectRatio="xMidYMid meet">

<g transform="translate(0.000000,500.000000) scale(0.100000,-0.100000)"
fill="#000000" stroke="none">
<path d="M2740 3622 c-48 -15 -144 -62 -190 -92 -14 -9 -58 -38 -99 -65 -74
-49 -298 -262 -341 -323 -12 -19 -29 -65 -36 -104 -9 -45 -23 -83 -40 -105
-16 -21 -36 -71 -50 -127 -22 -84 -23 -104 -17 -256 6 -169 3 -207 -38 -415
-22 -108 -103 -360 -150 -465 -37 -81 -54 -98 -153 -162 l-80 -51 49 -44 c207
-185 432 -297 688 -343 137 -25 353 -27 481 -4 279 48 546 192 749 401 42 45
77 83 77 86 0 2 -7 18 -15 33 -8 16 -15 36 -15 44 0 26 -69 221 -90 255 l-20
33 27 7 c56 13 113 56 151 113 83 122 103 208 96 399 -3 91 -11 134 -40 230
-35 119 -98 281 -135 354 -12 21 -22 49 -24 61 -2 13 -13 55 -24 93 -11 39
-22 91 -25 116 -13 107 -75 190 -157 209 -26 7 -57 23 -70 37 -29 31 -62 45
-114 50 -88 7 -112 11 -153 22 -23 7 -47 9 -53 6 -5 -4 -16 -2 -23 4 -15 12
-108 10 -118 -3 -4 -6 -12 -6 -20 1 -7 6 -20 8 -28 5z m268 -348 c18 -5 20 -9
11 -20 -10 -12 -1 -14 48 -14 44 0 64 -5 75 -17 9 -10 35 -37 57 -61 38 -40
46 -54 42 -75 -1 -5 11 -24 27 -42 16 -18 33 -50 36 -71 10 -53 39 -141 65
-194 11 -24 19 -46 16 -48 -3 -3 -42 5 -86 17 -60 15 -88 29 -105 48 -20 23
-31 27 -84 29 -33 0 -63 4 -67 8 -3 3 -45 6 -93 6 -73 0 -92 -3 -114 -21 -14
-11 -30 -17 -36 -14 -5 3 -10 1 -10 -5 0 -6 -4 -9 -8 -6 -4 2 -14 -9 -21 -25
-18 -42 -87 -61 -185 -50 -83 10 -106 18 -85 33 11 7 7 15 -18 37 -18 15 -33
32 -33 38 0 6 -5 13 -12 15 -13 5 18 58 34 58 6 0 19 11 30 25 11 14 25 25 33
25 7 0 15 3 17 8 2 4 28 29 58 57 30 27 60 57 65 66 9 14 66 66 136 124 73 59
148 84 207 69z m99 -490 c-3 -3 -12 -4 -19 -1 -8 3 -5 6 6 6 11 1 17 -2 13 -5z
m46 -55 c47 -14 107 -68 107 -95 0 -26 -8 -29 -54 -15 -96 29 -145 41 -167 41
-20 0 -18 -3 14 -18 l38 -17 -97 -2 c-53 -1 -94 0 -91 3 3 3 23 12 44 20 l38
14 -45 -4 c-25 -2 -58 -7 -75 -10 -28 -6 -29 -6 -5 4 13 6 32 18 41 26 26 23
171 72 199 67 14 -3 38 -9 53 -14z m-764 -72 c24 -12 43 -26 43 -32 0 -5 6
-17 14 -27 14 -15 8 -16 -79 -15 -75 2 -93 5 -85 15 6 6 16 12 24 12 7 0 15 4
19 9 5 9 -27 2 -67 -14 -13 -5 -17 0 -20 27 -2 21 3 37 12 45 20 16 84 7 139
-20z m415 11 c17 -20 17 -23 2 -49 -22 -38 -21 -58 4 -52 14 4 20 0 20 -11 0
-9 7 -16 15 -16 8 0 15 -5 15 -11 0 -23 -53 3 -96 47 -49 50 -51 59 -28 92 19
28 44 28 68 0z m-264 -43 c0 -17 -2 -17 -10 -5 -5 8 -10 24 -10 35 0 17 2 17
10 5 5 -8 10 -24 10 -35z m868 -14 c11 -6 5 -26 -28 -90 -22 -45 -48 -85 -58
-88 -26 -10 -81 -8 -92 3 -10 10 -5 20 83 134 37 50 64 61 95 41z m-158 -28
c-1 -23 -58 -118 -73 -121 -25 -5 -67 25 -67 48 0 14 9 21 38 25 78 13 80 14
75 35 -4 14 0 20 11 20 9 0 16 -3 16 -7z m-547 -105 c29 -59 66 -116 103 -157
l58 -64 156 6 c103 3 170 10 200 21 25 9 58 16 73 16 21 0 32 8 45 31 31 57
98 153 110 157 19 6 15 -162 -4 -228 -9 -30 -20 -95 -24 -145 -8 -102 -16
-131 -36 -139 -8 -3 -14 -15 -14 -27 0 -60 -105 -196 -176 -228 -39 -17 -126
-97 -137 -124 -3 -7 -24 -26 -48 -42 -24 -16 -59 -42 -78 -58 -35 -30 -130
-77 -194 -97 -59 -19 -167 -16 -207 5 -50 26 -100 82 -139 158 -19 37 -58 97
-88 134 -135 173 -162 241 -198 493 -12 85 -16 144 -11 184 l8 58 31 -29 c79
-73 208 -93 305 -48 l53 25 -22 -31 c-31 -44 -75 -68 -141 -75 -32 -4 -55 -10
-52 -15 9 -15 94 -10 130 7 40 19 109 118 149 214 34 82 41 90 75 90 25 0 32
-9 73 -92z m-179 58 c9 -13 7 -20 -8 -32 -23 -16 -46 -19 -46 -4 0 6 9 10 20
10 23 0 24 4 9 32 -14 26 9 21 25 -6z m283 -41 c18 -8 39 -15 47 -15 7 0 33
-9 57 -20 45 -20 129 -27 129 -11 0 5 -12 12 -27 14 l-28 4 30 1 c17 1 39 -5
49 -13 11 -8 35 -15 53 -15 18 0 33 -4 33 -8 0 -18 -49 -54 -99 -72 -132 -51
-254 -2 -308 124 -7 15 -13 35 -13 43 0 13 3 13 23 -1 12 -9 36 -23 54 -31z
m-566 -23 c6 -17 4 -27 -11 -42 -27 -27 -25 -31 6 -20 32 12 151 31 215 34 47
2 47 2 30 -20 -9 -13 -32 -32 -51 -42 -86 -49 -189 -36 -264 33 -52 47 -55 57
-23 73 37 19 89 10 98 -16z m979 -71 c16 -31 12 -56 -12 -78 -31 -28 -95 -40
-209 -37 -97 2 -140 15 -168 48 -12 14 -9 14 25 0 89 -38 207 -16 299 54 48
37 51 37 65 13z m300 -221 c0 -6 7 -10 15 -10 22 0 -14 -61 -43 -71 -19 -7
-22 -5 -22 20 0 16 3 42 6 59 6 27 9 30 25 21 11 -5 19 -14 19 -19z m-1511
-370 c-11 -44 -26 -83 -32 -87 -7 -4 -8 0 -2 13 4 10 14 60 22 109 17 109 26
133 31 83 2 -21 -7 -74 -19 -118z"/>
<path d="M2810 2253 c0 -4 7 -17 15 -27 8 -11 15 -30 15 -42 0 -13 8 -24 19
-27 25 -6 101 -143 101 -183 0 -39 -13 -44 -137 -44 -105 0 -119 12 -59 52 38
25 66 74 66 116 l0 27 -74 -2 c-41 -1 -83 -6 -94 -12 -35 -18 -123 -13 -160 9
-36 22 -37 21 -45 -42 -5 -30 -1 -40 21 -60 28 -24 39 -48 22 -48 -5 0 -10 6
-10 13 0 6 -9 -3 -20 -20 -11 -18 -27 -33 -35 -33 -9 0 -30 15 -46 33 -26 28
-30 38 -26 74 3 27 15 56 33 79 39 48 60 84 69 114 7 22 3 21 -30 -14 -42 -42
-154 -119 -213 -145 -12 -6 -25 -18 -28 -26 -10 -26 6 -65 30 -75 14 -5 27
-18 31 -29 6 -21 45 -37 78 -32 17 2 122 -97 155 -148 9 -12 33 -34 54 -47 40
-26 42 -44 5 -45 -15 0 -10 -5 18 -15 21 -8 61 -13 87 -12 46 3 62 12 36 21
-8 2 2 14 22 26 l35 23 -60 -5 c-33 -2 -75 0 -94 5 l-34 10 40 18 c22 10 44
23 48 30 4 6 19 16 33 22 19 7 22 12 12 15 -8 3 -21 6 -28 9 -10 3 -10 9 -2
24 12 23 40 26 59 8 10 -11 15 -9 26 6 18 25 45 14 45 -19 0 -33 26 -33 109 0
47 18 74 23 105 19 36 -5 45 -2 68 21 15 15 30 35 33 45 3 9 21 26 40 36 57
30 41 68 -40 94 -59 19 -123 62 -195 130 -66 62 -100 87 -100 73z m-258 -390
c11 -10 18 -11 23 -4 11 18 44 12 55 -9 6 -11 8 -25 5 -30 -9 -15 -41 -12 -55
4 -6 8 -17 13 -25 10 -7 -3 -25 6 -40 20 l-27 25 24 -1 c12 -1 30 -8 40 -15z"/>
<path d="M2726 1815 c-3 -9 0 -15 9 -15 9 0 12 6 9 15 -4 8 -7 15 -9 15 -2 0
-5 -7 -9 -15z"/>
<path d="M3865 2140 c-3 -5 -1 -10 4 -10 6 0 11 5 11 10 0 6 -2 10 -4 10 -3 0
-8 -4 -11 -10z"/>
<path d="M3851 2099 c-8 -23 -39 -91 -83 -189 -22 -48 -41 -92 -43 -100 0 -3
-15 -36 -33 -73 -18 -38 -32 -71 -32 -75 0 -12 47 62 93 148 45 84 124 297
113 307 -3 3 -10 -5 -15 -18z"/>
</g>
</svg>
